<svg width="163" height="70" viewBox="0 0 163 70" fill="none" xmlns="http://www.w3.org/2000/svg">
<g filter="url(#filter0_d)">
<circle cx="33.0065" cy="28.0065" r="28.0065" fill="#00243F"/>
</g>
<path d="M28.0217 15.0928L38.6009 36.6099H48.8472L38.028 15.0928H28.0217Z" fill="url(#paint0_linear)"/>
<path d="M38.0257 15.0928L27.4466 36.6099H17.2002L28.0194 15.0928H38.0257Z" fill="white"/>
<path d="M85.2266 21.2724C84.3495 19.8915 82.4006 19.0311 80.0214 19.0311C78.8756 19.0106 77.7382 19.2304 76.6824 19.6762C75.6267 20.122 74.676 20.7839 73.8916 21.6194C72.2659 23.3141 71.4412 25.4532 71.4412 27.9797C71.4412 30.5063 72.2421 32.6192 73.894 34.3709C74.684 35.1963 75.6362 35.8493 76.6906 36.289C77.7451 36.7287 78.8791 36.9456 80.0214 36.926C82.3982 36.926 84.3495 36.0656 85.2266 34.6847V36.5623H89.569V19.3995H85.2266V21.2724ZM84.0738 31.5307C83.6153 31.9951 83.0668 32.3611 82.462 32.6063C81.8572 32.8515 81.2087 32.9707 80.5562 32.9568C79.9137 32.9701 79.2754 32.8503 78.6814 32.6048C78.0875 32.3594 77.5508 31.9937 77.1051 31.5307C76.2332 30.5524 75.7515 29.2877 75.7515 27.9774C75.7515 26.667 76.2332 25.4023 77.1051 24.424C77.5511 23.9609 78.0882 23.595 78.6826 23.3496C79.2769 23.1042 79.9157 22.9844 80.5586 22.998C81.2115 22.9836 81.8604 23.1027 82.4657 23.348C83.0709 23.5932 83.6198 23.9593 84.0786 24.424C85.0092 25.3712 85.5306 26.6459 85.5306 27.9738C85.5306 29.3016 85.0092 30.5764 84.0786 31.5235L84.0738 31.5307Z" fill="#00243F"/>
<path d="M103.407 19.0642C101.267 19.0642 99.5182 19.9294 98.5674 21.4078V19.3994H94.2583V36.5622H98.5674V27.5446C98.5674 24.8684 100.231 23.207 102.938 23.207C103.488 23.2074 104.035 23.2623 104.574 23.371L104.776 23.4114V19.195L104.64 19.1688C104.233 19.094 103.82 19.059 103.407 19.0642Z" fill="#00243F"/>
<path d="M116.251 22.841C117.029 22.8278 117.802 22.9798 118.517 23.2871C119.232 23.5944 119.874 24.0499 120.401 24.6236L120.522 24.7519L123.217 21.9402L123.108 21.8214C122.241 20.8669 121.179 20.1092 119.995 19.5992C118.81 19.0892 117.531 18.8387 116.241 18.8646C115.019 18.8408 113.804 19.0595 112.667 19.5083C111.53 19.9571 110.494 20.6269 109.617 21.4791C107.808 23.2213 106.929 25.3343 106.929 27.944C106.929 30.5537 107.832 32.7237 109.617 34.4398C111.402 36.1558 113.636 37.0376 116.251 37.0376C117.54 37.0635 118.82 36.8131 120.004 36.3031C121.189 35.7931 122.25 35.0353 123.117 34.0809L123.227 33.962L120.522 31.1503L120.401 31.2786C119.874 31.8523 119.232 32.3079 118.517 32.6151C117.802 32.9224 117.029 33.0745 116.251 33.0612C115.586 33.076 114.926 32.9551 114.31 32.7058C113.694 32.4565 113.136 32.0841 112.669 31.6114C111.756 30.6139 111.249 29.3106 111.249 27.9582C111.249 26.6059 111.756 25.3025 112.669 24.3051C113.135 23.8299 113.693 23.455 114.309 23.2032C114.925 22.9515 115.585 22.8282 116.251 22.841Z" fill="#00243F"/>
<path d="M141.126 19.3994H138.807L134.053 25.8595L129.33 19.3994H127.011L132.91 27.4805L126.483 36.5575H128.798L134.086 29.1039L139.372 36.5575H141.687L135.227 27.4472L141.126 19.3994Z" fill="#00243F"/>
<path d="M160.483 21.5527C159.137 20.1767 157.368 19.292 155.46 19.0399C153.551 18.7879 151.613 19.183 149.956 20.1623C149.087 20.6781 148.361 21.4038 147.846 22.2728V19.3993H145.84V43.0009H147.846V33.6886C148.359 34.5681 149.085 35.3039 149.959 35.8277C151.624 36.7872 153.56 37.1677 155.464 36.9097C157.368 36.6516 159.133 35.7696 160.483 34.4016C162.147 32.6618 163 30.5013 163 27.9843C163 25.4673 162.154 23.2925 160.483 21.5527ZM154.353 35.0862C152.404 35.0862 150.838 34.4373 149.569 33.1015C148.3 31.7658 147.646 30.0378 147.646 27.9795C147.646 25.9212 148.292 24.229 149.569 22.8884C150.18 22.2354 150.922 21.7187 151.746 21.3718C152.571 21.0249 153.459 20.8557 154.353 20.8753C155.241 20.8544 156.123 21.0271 156.938 21.3813C157.753 21.7355 158.481 22.2628 159.071 22.9265C160.348 24.267 160.994 25.9688 160.994 27.9843C161.036 29.8567 160.345 31.6714 159.069 33.0421C158.478 33.7043 157.75 34.2302 156.936 34.5831C156.122 34.9361 155.24 35.1077 154.353 35.0862Z" fill="#00243F"/>
<defs>
<filter id="filter0_d" x="0.0496757" y="0" width="65.9137" height="69.6842" filterUnits="userSpaceOnUse" color-interpolation-filters="sRGB">
<feFlood flood-opacity="0" result="BackgroundImageFix"/>
<feColorMatrix in="SourceAlpha" type="matrix" values="0 0 0 0 0 0 0 0 0 0 0 0 0 0 0 0 0 0 127 0"/>
<feMorphology radius="1.02597" operator="erode" in="SourceAlpha" result="effect1_dropShadow"/>
<feOffset dy="8.72078"/>
<feGaussianBlur stdDeviation="2.98815"/>
<feColorMatrix type="matrix" values="0 0 0 0 0.168627 0 0 0 0 0.172549 0 0 0 0 0.176471 0 0 0 0.35 0"/>
<feBlend mode="normal" in2="BackgroundImageFix" result="effect1_dropShadow"/>
<feBlend mode="normal" in="SourceGraphic" in2="effect1_dropShadow" result="shape"/>
</filter>
<linearGradient id="paint0_linear" x1="49.8098" y1="35.4744" x2="26.9821" y2="16.2829" gradientUnits="userSpaceOnUse">
<stop offset="0.00217554" stop-color="#4FBFA2"/>
<stop offset="0.2202" stop-color="#4EBEA4"/>
<stop offset="0.3471" stop-color="#49BBA8"/>
<stop offset="0.4505" stop-color="#3FB8AF"/>
<stop offset="0.5414" stop-color="#2CB3BA"/>
<stop offset="0.6241" stop-color="#00AEC7"/>
<stop offset="0.6997" stop-color="#00A7D6"/>
<stop offset="0.7333" stop-color="#00A3E0"/>
</linearGradient>
</defs>
</svg>
